<svg version="1.2" xmlns="http://www.w3.org/2000/svg" viewBox="0 0 24 24" width="24" height="24"><style>.a{fill:#fff}</style><path class="a" d="m9.5 1.7q0.1 0.1 0.2 0.2 0 0.1 0 0.2 0.1 0.1 0 0.2 0 0.1 0 0.2-0.2 0.4-0.3 0.9-0.1 0.4-0.2 0.8-0.1 0.5-0.2 0.9 0 0.5 0 0.9c0 1.2 0.2 2.4 0.7 3.4 0.4 1.1 1.1 2.1 1.9 3 0.9 0.8 1.9 1.5 3 1.9 1 0.5 2.2 0.7 3.4 0.7q0.4 0 0.9 0 0.4-0.1 0.9-0.2 0.4-0.1 0.8-0.2 0.5-0.1 0.9-0.3 0.2-0.1 0.4 0 0.2 0 0.4 0.2 0.1 0.1 0.2 0.4 0 0.2-0.1 0.4-0.6 1.4-1.5 2.6-1 1.2-2.3 2.1-1.3 0.8-2.8 1.3-1.5 0.4-3 0.4c-5.8 0-10.5-4.7-10.5-10.4 0-4.4 2.6-8.2 6.4-9.7q0.1-0.1 0.2-0.1 0.1 0 0.2 0 0.2 0 0.3 0.1 0 0 0.1 0.1z"/></svg>