<svg version="1.2" xmlns="http://www.w3.org/2000/svg" viewBox="0 0 24 24" width="24" height="24"><style>.a{fill:#ff0}</style><path fill-rule="evenodd" class="a" d="m12 2.3q0.1 0 0.3 0 0.1 0.1 0.2 0.2 0.1 0.1 0.2 0.2 0 0.2 0 0.3v2.3q0 0.3-0.2 0.5-0.2 0.2-0.5 0.2-0.3 0-0.5-0.2-0.2-0.2-0.3-0.5v-2.3q0.1-0.1 0.1-0.3 0.1-0.1 0.2-0.2 0.1-0.1 0.2-0.2 0.2 0 0.3 0zm-4.5 9.7c0-1.2 0.5-2.3 1.3-3.2 0.9-0.8 2-1.3 3.2-1.3 1.2 0 2.3 0.5 3.2 1.3 0.8 0.9 1.3 2 1.3 3.2 0 1.2-0.5 2.3-1.3 3.2-0.9 0.8-2 1.3-3.2 1.3-1.2 0-2.3-0.5-3.2-1.3-0.8-0.9-1.3-2-1.3-3.2zm9.8-4.2q-0.2 0.2-0.5 0.2-0.3 0-0.6-0.2-0.2-0.3-0.2-0.6 0-0.3 0.2-0.5l1.6-1.6q0.3-0.2 0.6-0.2 0.3 0 0.5 0.2 0.2 0.2 0.2 0.5 0 0.3-0.2 0.6c0 0-1.6 1.6-1.6 1.6zm4.4 4.2q0 0.1 0 0.3-0.1 0.1-0.2 0.2-0.1 0.1-0.2 0.2-0.2 0-0.3 0.1h-2.3q-0.3-0.1-0.5-0.3-0.2-0.2-0.2-0.5 0-0.3 0.2-0.5 0.2-0.2 0.5-0.2h2.3q0.1 0 0.3 0 0.1 0.1 0.2 0.2 0.1 0.1 0.2 0.2 0 0.2 0 0.3zm-5.5 5.3q-0.2-0.2-0.2-0.5 0-0.3 0.2-0.6 0.3-0.2 0.6-0.2 0.3 0 0.5 0.2l1.6 1.6q0.2 0.3 0.2 0.6 0 0.3-0.2 0.5-0.2 0.2-0.5 0.2-0.3 0-0.6-0.2c0 0-1.6-1.6-1.6-1.6zm-4.2 0.7q0.1 0 0.3 0.1 0.1 0 0.2 0.1 0.1 0.1 0.2 0.3 0 0.1 0 0.3v2.2q0 0.3-0.2 0.5-0.2 0.2-0.5 0.3-0.3-0.1-0.5-0.3-0.2-0.2-0.3-0.5v-2.2q0.1-0.2 0.1-0.3 0.1-0.2 0.2-0.3 0.1-0.1 0.2-0.1 0.2-0.1 0.3-0.1zm-5.8 0.9q-0.3 0.2-0.6 0.2-0.3 0-0.5-0.2-0.2-0.2-0.2-0.5 0-0.3 0.2-0.6l1.6-1.6q0.2-0.2 0.5-0.2 0.3 0 0.5 0.3 0.3 0.2 0.3 0.5 0 0.3-0.2 0.5c0 0-1.6 1.6-1.6 1.6zm-0.2-6.9q0 0.1-0.1 0.3 0 0.1-0.1 0.2-0.1 0.1-0.3 0.2-0.1 0-0.3 0.1h-2.2q-0.3-0.1-0.5-0.3-0.2-0.2-0.3-0.5 0.1-0.3 0.3-0.5 0.2-0.2 0.5-0.2h2.2q0.2 0 0.3 0 0.2 0.1 0.3 0.2 0.1 0.1 0.1 0.2 0.1 0.2 0.1 0.3zm-0.9-5.8q-0.2-0.3-0.2-0.6 0-0.3 0.2-0.5 0.2-0.2 0.5-0.2 0.3 0 0.6 0.2l1.6 1.6q0.2 0.2 0.2 0.5-0.1 0.3-0.3 0.5-0.2 0.2-0.5 0.3-0.3 0-0.5-0.2c0 0-1.6-1.6-1.6-1.6z"/></svg>